<svg id="Layer_1" data-name="Layer 1" xmlns="http://www.w3.org/2000/svg" viewBox="0 0 216 216"><defs><style>.cls-1{fill:none;stroke:#00b0e9;stroke-linecap:round;stroke-linejoin:round;stroke-width:4.5px;}</style></defs><path class="cls-1" d="M162.83,157.84H157.2V141.27a6.76,6.76,0,0,0-3-12.72h0c-4,0-4.95-5.6-4.95-5.6,0-16.69-10.65-31-25.74-36.93V80.74h0c-.26-1.12-2.58-2.1-6.09-2.74V74.88h.43a1.22,1.22,0,1,0,0-2.44h-1.39v-17h1.39a1.23,1.23,0,0,0,0-2.45H117c-.78,0-1-1.11-1-1.11a7.89,7.89,0,0,0-5.55-7.45V41.48a2.8,2.8,0,0,0,.42-1.46v-.34a2.85,2.85,0,0,0-1.44-2.46V35.66a2,2,0,0,0,1-1.71V22.8a2,2,0,0,0-2-2h-1.21a2,2,0,0,0-2,2V34a2,2,0,0,0,1,1.71v1.56a2.85,2.85,0,0,0-1.43,2.46V40a2.8,2.8,0,0,0,.42,1.46v2.93a7.9,7.9,0,0,0-5.56,7.45s-.19,1.11-1,1.11h-.8a1.23,1.23,0,0,0,0,2.45h1.39v17H97.87a1.22,1.22,0,0,0,0,2.44h.43V78c-3.5.64-5.83,1.62-6.09,2.74h0V86C77.07,92,66.43,106.25,66.43,122.94c0,0-1,5.6-5,5.6h0a6.76,6.76,0,0,0-3,12.72v16.57H52.81a6.76,6.76,0,0,0-3.91,12.27v22.7H60v-22.7h7.37v22.7h7.36v-22.7h7.37v22.7h7.36v-22.7h7.36v22.7h7.37v-22.7h7.36v22.7h7.37v-22.7h7.36v22.7h7.37v-22.7H141v22.7h7.36v-22.7h7.37v22.7h11v-22.7a6.75,6.75,0,0,0-3.9-12.27Z"/><line class="cls-1" x1="66.49" y1="141.11" x2="66.49" y2="156.34"/><line class="cls-1" x1="75.64" y1="141.11" x2="75.64" y2="156.34"/><line class="cls-1" x1="84.79" y1="141.11" x2="84.79" y2="156.34"/><line class="cls-1" x1="93.93" y1="141.11" x2="93.93" y2="156.34"/><line class="cls-1" x1="103.08" y1="141.11" x2="103.08" y2="156.34"/><line class="cls-1" x1="112.22" y1="141.11" x2="112.22" y2="156.34"/><line class="cls-1" x1="121.37" y1="141.11" x2="121.37" y2="156.34"/><line class="cls-1" x1="130.51" y1="141.11" x2="130.51" y2="156.34"/><line class="cls-1" x1="139.66" y1="141.11" x2="139.66" y2="156.34"/><line class="cls-1" x1="148.8" y1="141.11" x2="148.8" y2="156.34"/><line class="cls-1" x1="78.19" y1="117.44" x2="78.19" y2="119.74"/><line class="cls-1" x1="90.01" y1="117.44" x2="90.01" y2="119.74"/><line class="cls-1" x1="101.88" y1="117.44" x2="101.88" y2="119.74"/><line class="cls-1" x1="113.75" y1="117.44" x2="113.75" y2="119.74"/><line class="cls-1" x1="125.62" y1="117.44" x2="125.62" y2="119.74"/><line class="cls-1" x1="137.49" y1="117.44" x2="137.49" y2="119.74"/></svg>