<svg id="Layer_1" data-name="Layer 1" xmlns="http://www.w3.org/2000/svg" viewBox="0 0 216 216"><defs><style>.cls-1{fill:none;stroke:#00b0e9;stroke-linecap:round;stroke-linejoin:round;stroke-width:4.5px;}</style></defs><rect class="cls-1" x="66.14" y="41.15" width="35.46" height="13.25"/><line class="cls-1" x1="70.42" y1="54.4" x2="70.42" y2="68.05"/><line class="cls-1" x1="97.12" y1="54.4" x2="97.12" y2="68.05"/><path class="cls-1" d="M97.12,68.05v43.39A5.53,5.53,0,0,1,91.6,117H48.41V82.81a9.68,9.68,0,0,1,6.4-9.11l15.61-5.65Z"/><path class="cls-1" d="M61.63,71.23V99.77a9.69,9.69,0,0,1-6.39,9.12l-6.83,2.47"/><line class="cls-1" x1="48.41" y1="116.97" x2="44.13" y2="156.51"/><line class="cls-1" x1="83.34" y1="116.97" x2="87.63" y2="156.51"/><polyline class="cls-1" points="82.65 156.51 90.4 156.51 90.4 174.85 41.07 174.85 41.07 156.51 74.5 156.51"/><rect class="cls-1" x="114.39" y="41.15" width="35.46" height="13.25" transform="translate(264.25 95.54) rotate(-180)"/><line class="cls-1" x1="145.58" y1="54.4" x2="145.58" y2="68.05"/><line class="cls-1" x1="118.88" y1="54.4" x2="118.88" y2="68.05"/><path class="cls-1" d="M118.88,68.05v43.39A5.53,5.53,0,0,0,124.4,117h43.19V82.81a9.68,9.68,0,0,0-6.4-9.11l-15.61-5.65Z"/><path class="cls-1" d="M154.37,71.23V99.77a9.69,9.69,0,0,0,6.39,9.12l6.83,2.47"/><line class="cls-1" x1="167.59" y1="116.97" x2="171.87" y2="156.51"/><line class="cls-1" x1="132.66" y1="116.97" x2="128.37" y2="156.51"/><polyline class="cls-1" points="167.18 156.51 174.93 156.51 174.93 174.85 125.6 174.85 125.6 156.51 159.03 156.51"/><line class="cls-1" x1="97.12" y1="74.64" x2="118.88" y2="74.64"/><line class="cls-1" x1="97.12" y1="85.63" x2="118.88" y2="85.63"/><line class="cls-1" x1="97.12" y1="109.99" x2="118.88" y2="109.99"/></svg>