<svg id="Layer_1" data-name="Layer 1" xmlns="http://www.w3.org/2000/svg" viewBox="0 0 216 216"><defs><style>.cls-1{fill:none;stroke:#00b0e9;stroke-linecap:round;stroke-linejoin:round;stroke-width:4.5px;}</style></defs><path class="cls-1" d="M151.94,67.33v-.4a9.7,9.7,0,0,0-9.7-9.7h0a9.7,9.7,0,0,0-9.7,9.7h0a19,19,0,0,0,19,19h0A23.16,23.16,0,0,0,174.7,62.78h0a24,24,0,0,0-23.95-24H65.25a24,24,0,0,0-24,24h0A23.16,23.16,0,0,0,64.46,85.93h0a19,19,0,0,0,19-19h0a9.7,9.7,0,0,0-9.7-9.7h0a9.7,9.7,0,0,0-9.7,9.7v.4"/><line class="cls-1" x1="83.46" y1="66.54" x2="132.54" y2="66.54"/><line class="cls-1" x1="76.79" y1="81.38" x2="139.21" y2="81.38"/><polyline class="cls-1" points="57.73 177.17 57.73 92.66 162.03 92.66 162.03 177.17"/><line class="cls-1" x1="78.59" y1="100.78" x2="78.59" y2="177.17"/><line class="cls-1" x1="99.45" y1="100.78" x2="99.45" y2="177.17"/><line class="cls-1" x1="120.31" y1="100.78" x2="120.31" y2="177.17"/><line class="cls-1" x1="141.17" y1="100.78" x2="141.17" y2="177.17"/></svg>