<svg id="Layer_1" data-name="Layer 1" xmlns="http://www.w3.org/2000/svg" viewBox="0 0 216 216"><defs><style>.cls-1{fill:none;stroke:#00b0e9;stroke-linecap:round;stroke-linejoin:round;stroke-width:4.5px;}</style></defs><path class="cls-1" d="M102.15,109.63V36.1a11.71,11.71,0,0,1,11.71-11.71h0a11.7,11.7,0,0,1,11.7,11.71v73.53"/><path class="cls-1" d="M125.56,56.83a11.72,11.72,0,0,1,11.71-11.71h0A11.71,11.71,0,0,1,149,56.83v52.8"/><path class="cls-1" d="M149,77.56a11.7,11.7,0,0,1,11.71-11.7h0a11.7,11.7,0,0,1,11.71,11.7v85.7a28.36,28.36,0,0,1-28.35,28.35H97.53a19.3,19.3,0,0,1-16.42-9.15L45.36,124.72a11.71,11.71,0,0,1,3.78-16.12h0a11.71,11.71,0,0,1,16.12,3.78l13.52,21.8,0-82.1A11.71,11.71,0,0,1,90.44,40.37h0a11.71,11.71,0,0,1,11.71,11.71"/></svg>