<svg id="Layer_1" data-name="Layer 1" xmlns="http://www.w3.org/2000/svg" viewBox="0 0 216 216"><defs><style>.cls-1{fill:none;stroke:#00b0e9;stroke-linecap:round;stroke-linejoin:round;stroke-width:4.5px;}</style></defs><path class="cls-1" d="M97,62.64a5.7,5.7,0,0,0-5.69,5.7,5.62,5.62,0,0,0,.11,1.1,10.45,10.45,0,0,0-1.49-.12A9.85,9.85,0,0,0,80,79.17a10.59,10.59,0,0,0,.13,1.5,13.06,13.06,0,0,0,.06,25.54,9.56,9.56,0,0,0-.19,1.87,9.85,9.85,0,0,0,9.85,9.84,9.32,9.32,0,0,0,1.51-.13,6.26,6.26,0,0,0-.13,1.23,5.7,5.7,0,1,0,11.39,0V68.34A5.7,5.7,0,0,0,97,62.64Z"/><line class="cls-1" x1="86.34" y1="93.58" x2="102.65" y2="93.58"/><circle class="cls-1" cx="90.32" cy="82.22" r="3.22"/><circle class="cls-1" cx="83.13" cy="93.58" r="3.22"/><path class="cls-1" d="M90.32,85.44c0,3.79,2.91,8.14,7.58,8.14"/><path class="cls-1" d="M118.91,124.72a5.7,5.7,0,0,0,5.69-5.7,5.62,5.62,0,0,0-.11-1.1A10.45,10.45,0,0,0,126,118a9.85,9.85,0,0,0,9.85-9.85,10.59,10.59,0,0,0-.13-1.5,13.06,13.06,0,0,0-.06-25.54,9.56,9.56,0,0,0,.19-1.87A9.85,9.85,0,0,0,126,69.44a9.32,9.32,0,0,0-1.51.13,6.26,6.26,0,0,0,.13-1.23,5.7,5.7,0,1,0-11.39,0V119A5.7,5.7,0,0,0,118.91,124.72Z"/><line class="cls-1" x1="129.52" y1="93.78" x2="113.21" y2="93.78"/><circle class="cls-1" cx="125.54" cy="105.14" r="3.22"/><circle class="cls-1" cx="132.74" cy="93.78" r="3.22"/><path class="cls-1" d="M125.54,101.92c0-3.79-2.9-8.14-7.58-8.14"/><path class="cls-1" d="M154.55,92.67A46.62,46.62,0,1,0,78.62,128.9,17.25,17.25,0,0,1,85,142.31V147a9.3,9.3,0,0,0,9.3,9.3h27.22a9.3,9.3,0,0,0,9.3-9.3v-4.65a17.4,17.4,0,0,1,6.5-13.48A46.52,46.52,0,0,0,154.55,92.67Z"/><path class="cls-1" d="M90.9,156.26H125a0,0,0,0,1,0,0V173.7a12.55,12.55,0,0,1-12.55,12.55h-9A12.55,12.55,0,0,1,90.9,173.7V156.26A0,0,0,0,1,90.9,156.26Z"/><path class="cls-1" d="M113.19,186.25a5.26,5.26,0,1,1-10.52,0"/><line class="cls-1" x1="124.97" y1="158.38" x2="90.9" y2="166.52"/><line class="cls-1" x1="124.97" y1="166.2" x2="90.9" y2="174.34"/><line class="cls-1" x1="124.97" y1="174.01" x2="93.84" y2="181.45"/><line class="cls-1" x1="49.58" y1="94.27" x2="38.22" y2="94.27"/><line class="cls-1" x1="177.78" y1="94.27" x2="166.42" y2="94.27"/><line class="cls-1" x1="108" y1="35.85" x2="108" y2="24.49"/><line class="cls-1" x1="66.69" y1="135.58" x2="58.66" y2="143.61"/><line class="cls-1" x1="157.34" y1="44.93" x2="149.31" y2="52.96"/><line class="cls-1" x1="66.69" y1="52.96" x2="58.66" y2="44.93"/><line class="cls-1" x1="157.34" y1="143.61" x2="149.31" y2="135.58"/></svg>