<svg id="Layer_1" data-name="Layer 1" xmlns="http://www.w3.org/2000/svg" viewBox="0 0 216 216"><defs><style>.cls-1{fill:none;stroke:#00b0e9;stroke-linecap:round;stroke-linejoin:round;stroke-width:4.5px;}</style></defs><path class="cls-1" d="M131.06,140.17c0-15.53,13.35-23.78,13.35-52.18,0-28.89-23-42-52.18-42l-34,31.79L70.14,93.33c16.75-8.5,36.41-10.68,36.41-6.8,0,6.8-30.34,16.75-30.34,43,0,10,3.15,12.38,3.15,15.78,0,4.86-14.8,13.11-14.8,18.45v17.76a2.87,2.87,0,0,0,2.87,2.87h78.24a2.88,2.88,0,0,0,2.87-2.87V163.72C148.54,159.59,131.06,149.4,131.06,140.17Z"/><path class="cls-1" d="M94.84,39.9c35.1,0,56.9,17.9,56.9,46.71,0,17.35-4.76,27.79-8.59,36.18-.94,2.07-1.81,4-2.55,5.85l2.44,1.73s15.86-22.83,15.86-43.76c0-33.39-24.48-55-64.06-55H94.6V39.9Z"/></svg>