<svg id="Layer_1" data-name="Layer 1" xmlns="http://www.w3.org/2000/svg" viewBox="0 0 216 216"><defs><style>.cls-1{fill:none;stroke:#00b0e9;stroke-linecap:round;stroke-linejoin:round;stroke-width:4.5px;}</style></defs><polygon class="cls-1" points="142.17 127.73 142.17 88.27 108 68.54 73.83 88.27 73.83 127.73 108 147.46 142.17 127.73"/><polyline class="cls-1" points="55.06 77.43 108 107.52 160.94 77.43"/><line class="cls-1" x1="73.83" y1="127.93" x2="55.06" y2="138.6"/><line class="cls-1" x1="160.94" y1="138.6" x2="142.09" y2="127.88"/><line class="cls-1" x1="108" y1="107.33" x2="108" y2="147.46"/><line class="cls-1" x1="108" y1="47.05" x2="108" y2="68.54"/><line class="cls-1" x1="108" y1="147.46" x2="108" y2="168.95"/><rect class="cls-1" x="98.75" y="28.55" width="18.5" height="18.5"/><rect class="cls-1" x="36.56" y="58.93" width="18.5" height="18.5"/><rect class="cls-1" x="160.94" y="58.93" width="18.5" height="18.5"/><rect class="cls-1" x="36.56" y="138.6" width="18.5" height="18.5"/><rect class="cls-1" x="160.94" y="138.6" width="18.5" height="18.5"/><rect class="cls-1" x="98.75" y="168.95" width="18.5" height="18.5"/></svg>