<svg id="Layer_1" data-name="Layer 1" xmlns="http://www.w3.org/2000/svg" viewBox="0 0 216 216"><defs><style>.cls-1{fill:none;stroke:#00b0e9;stroke-linecap:round;stroke-linejoin:round;stroke-width:4.5px;}</style></defs><circle class="cls-1" cx="108" cy="104.33" r="21.65"/><circle class="cls-1" cx="108" cy="104.33" r="30.36"/><polyline class="cls-1" points="46.6 78.43 58.59 90.42 65.75 83.26 78.7 96.21"/><line class="cls-1" x1="75.71" y1="72.2" x2="86.46" y2="82.95"/><polyline class="cls-1" points="71.25 37.05 71.25 48.55 98.13 75.43"/><circle class="cls-1" cx="71.2" cy="30.43" r="6.62"/><circle class="cls-1" cx="71.03" cy="67.52" r="6.62"/><circle class="cls-1" cx="41.94" cy="73.77" r="6.62"/><polyline class="cls-1" points="133.9 42.93 121.91 54.91 129.07 62.07 116.12 75.03"/><line class="cls-1" x1="140.13" y1="72.03" x2="129.37" y2="82.78"/><polyline class="cls-1" points="175.28 67.58 163.78 67.58 136.9 94.46"/><circle class="cls-1" cx="181.89" cy="67.53" r="6.62"/><circle class="cls-1" cx="144.8" cy="67.35" r="6.62"/><circle class="cls-1" cx="138.56" cy="38.27" r="6.62"/><polyline class="cls-1" points="169.4 130.23 157.41 118.24 150.25 125.4 137.3 112.44"/><line class="cls-1" x1="140.29" y1="136.45" x2="129.54" y2="125.7"/><polyline class="cls-1" points="144.75 171.61 144.75 160.1 117.87 133.23"/><circle class="cls-1" cx="144.8" cy="178.22" r="6.62"/><circle class="cls-1" cx="144.97" cy="141.13" r="6.62"/><circle class="cls-1" cx="174.06" cy="134.88" r="6.62"/><polyline class="cls-1" points="82.1 165.72 94.09 153.74 86.93 146.58 99.88 133.63"/><line class="cls-1" x1="75.87" y1="136.62" x2="86.63" y2="125.87"/><polyline class="cls-1" points="40.72 141.07 52.23 141.07 79.1 114.2"/><circle class="cls-1" cx="34.11" cy="141.13" r="6.62"/><circle class="cls-1" cx="71.2" cy="141.3" r="6.62"/><circle class="cls-1" cx="77.44" cy="170.38" r="6.62"/></svg>