<svg id="Layer_1" data-name="Layer 1" xmlns="http://www.w3.org/2000/svg" viewBox="0 0 216 216"><defs><style>.cls-1{fill:none;stroke:#00b0e9;stroke-linecap:round;stroke-linejoin:round;stroke-width:4.5px;}</style></defs><polygon class="cls-1" points="108.39 160.14 77.65 137.71 77.65 102.71 108.39 80.28 139.06 102.71 139.09 137.71 108.39 160.14"/><path class="cls-1" d="M129.93,36.5a82.48,82.48,0,0,1,49.32,120.72,5.87,5.87,0,0,1-10.15-5.88A70.7,70.7,0,0,0,178.58,116a70,70,0,0,0-15.44-44.11,71.15,71.15,0,0,0-34.9-23.62"/><path class="cls-1" d="M28.19,137.12A82.44,82.44,0,0,1,107.87,33.51a5.87,5.87,0,1,1,0,11.73,70.78,70.78,0,0,0-68.72,87.41"/><path class="cls-1" d="M166,174.36A82.45,82.45,0,0,1,36.5,157.22a5.87,5.87,0,1,1,10.15-5.88A70.72,70.72,0,0,0,156.78,167"/><path class="cls-1" d="M49.8,174.43a21.78,21.78,0,1,1,9.33-7.29"/><path class="cls-1" d="M187.59,137a21.77,21.77,0,1,1-13.17-4.43c.74,0,1.46,0,2.17.11"/><path class="cls-1" d="M86.82,36.24a21.77,21.77,0,0,1,43.11.26,22.72,22.72,0,0,1,.18,2.88,21.55,21.55,0,0,1-1.87,8.84A21.77,21.77,0,0,1,88.36,48"/><polyline class="cls-1" points="139.06 102.71 108.39 124.72 77.65 102.71"/><line class="cls-1" x1="108.32" y1="160.14" x2="108.39" y2="124.72"/></svg>