<svg id="Layer_1" data-name="Layer 1" xmlns="http://www.w3.org/2000/svg" viewBox="0 0 216 216"><defs><style>.cls-1{fill:none;stroke:#00b0e9;stroke-linecap:round;stroke-linejoin:round;stroke-width:4.5px;}</style></defs><polyline class="cls-1" points="64.31 108.87 64.31 70.86 68.17 64.86 64.23 42.47 56.66 42.47 52.72 64.86 56.58 70.86 56.58 108.87"/><polygon class="cls-1" points="68.96 108.87 70.7 165.81 68.17 176.06 52.72 176.06 50.19 165.81 51.93 108.87 68.96 108.87"/><polygon class="cls-1" points="110.22 176.06 107.69 165.81 109.43 102.08 131.27 102.08 133 165.81 130.48 176.06 110.22 176.06"/><path class="cls-1" d="M92,48.62h5.36c7.1,0,9-8.68,18-8.68h2.21c21.3,0,36.59,4.42,48.27,38.33l-5.37,5.36s-8.85-16.36-20.95-20.76A4.37,4.37,0,0,0,133.63,67v6.14a5.16,5.16,0,0,1-5.15,5.15H113.39a5.15,5.15,0,0,1-5.15-5.15v-.69A11.21,11.21,0,0,0,97,61.23H92"/><rect class="cls-1" x="79.69" y="42.46" width="12.3" height="24.76" rx="3.24"/><line class="cls-1" x1="113.53" y1="102.09" x2="113.53" y2="78.27"/><line class="cls-1" x1="127.17" y1="102.09" x2="127.17" y2="78.27"/></svg>