<svg id="Layer_1" data-name="Layer 1" xmlns="http://www.w3.org/2000/svg" viewBox="0 0 216 216"><defs><style>.cls-1{fill:none;stroke:#00b0e9;stroke-linecap:round;stroke-linejoin:round;stroke-width:4.5px;}</style></defs><path class="cls-1" d="M143.82,54l6-12.52a52.78,52.78,0,0,0-8.29-8.28l-12.52,6A41.07,41.07,0,0,0,118.91,35L114.27,21.9a52.11,52.11,0,0,0-11.71,0L97.91,35a41.07,41.07,0,0,0-10.06,4.17l-12.52-6a52.29,52.29,0,0,0-8.28,8.28L73,54"/><path class="cls-1" d="M80.42,63.76a30,30,0,0,1,55.37-1.46"/><path class="cls-1" d="M79.65,113.2v-3a10.72,10.72,0,0,1,7.89-10.34l12-3.3V92.29"/><path class="cls-1" d="M116.65,96.52l12,3.3a10.72,10.72,0,0,1,7.69,8.28"/><path class="cls-1" d="M116.65,101.6V92.1h0a17.67,17.67,0,0,0,4.95-9.17,3.2,3.2,0,0,0,3.45-2.85l.35-4.2a3.41,3.41,0,0,0-2.64-3.61,4,4,0,0,0-.48-.08h-.16V64.65A11.1,11.1,0,0,0,111,53.54h-6a11.1,11.1,0,0,0-11.1,11.11v7.54h-.16a4,4,0,0,0-.48.08,3.41,3.41,0,0,0-2.64,3.61l.35,4.2a3.2,3.2,0,0,0,3.45,2.85c1.3,5.79,5.23,12.43,13.71,12.43"/><polyline class="cls-1" points="32.38 104.6 55.63 104.6 55.63 178.66 32.38 178.66"/><polyline class="cls-1" points="183.62 185.18 160.37 185.18 160.37 111.13 183.62 111.13"/><line class="cls-1" x1="55.63" y1="113.2" x2="98.47" y2="113.2"/><path class="cls-1" d="M160.37,119.25,138.69,109a17.66,17.66,0,0,0-7.56-1.7H112.35a18.06,18.06,0,0,0-13.88,6.5l-18.3,22a5.34,5.34,0,0,0,.62,7.45h0a11.88,11.88,0,0,0,16.08-.54l8.66-9.85a12.23,12.23,0,0,1,20,2.3L146,173.36a6.9,6.9,0,0,1-2,8.84l-.39.28a6.91,6.91,0,0,1-9.53-1.35l-16.6-21.45"/><path class="cls-1" d="M103.25,166.61l13.21,17.49a7.41,7.41,0,0,0,10.37,1.45l.71-.53a7.41,7.41,0,0,0,1.4-10.46l-.82-1.06"/><path class="cls-1" d="M92.26,175.75l9.93,13.16a6,6,0,0,0,8.33,1.17l1-.71a7.15,7.15,0,0,0,1.41-10l-2.21-2.92"/><path class="cls-1" d="M55.63,164.64h9.56l19.26,26.45A8.12,8.12,0,0,0,95.66,193l.31-.22a7,7,0,0,0,1.58-10l-2-2.71"/><line class="cls-1" x1="160.37" y1="173.01" x2="145.78" y2="173.01"/><line class="cls-1" x1="41.22" y1="163.51" x2="41.22" y2="164.58"/><line class="cls-1" x1="175.73" y1="172.47" x2="175.73" y2="173.55"/><polyline class="cls-1" points="129.2 99.82 141.23 96.52 141.23 92.29"/><path class="cls-1" d="M158.32,96.52l12,3.3a10.73,10.73,0,0,1,7.88,10.34v1"/><path class="cls-1" d="M158.32,101.6V92.1h0a17.81,17.81,0,0,0,5-9.17,3.19,3.19,0,0,0,3.44-2.85l.35-4.2a3.41,3.41,0,0,0-2.63-3.61,4,4,0,0,0-.48-.08h-.16V64.65a11.1,11.1,0,0,0-11.11-11.11h-6a11.11,11.11,0,0,0-11.11,11.11v7.54h-.15a3.46,3.46,0,0,0-3.12,3.69l.35,4.2a3.19,3.19,0,0,0,3.44,2.85c1.31,5.79,5.23,12.43,13.71,12.43"/><path class="cls-1" d="M39.53,104.6a10.69,10.69,0,0,1,6.34-4.78l12-3.3V92.29"/><path class="cls-1" d="M75,96.52l12,3.3.26.07"/><path class="cls-1" d="M75,101.6V92.1h0a17.76,17.76,0,0,0,5-9.17,3.19,3.19,0,0,0,3.44-2.85l.35-4.2a3.46,3.46,0,0,0-3.12-3.69h-.15V64.65A11.11,11.11,0,0,0,69.35,53.54h-6A11.1,11.1,0,0,0,52.21,64.65v7.54h-.16a4,4,0,0,0-.48.08,3.41,3.41,0,0,0-2.63,3.61l.35,4.2a3.19,3.19,0,0,0,3.44,2.85C54,88.72,58,95.36,66.44,95.36"/></svg>