<svg id="Layer_1" data-name="Layer 1" xmlns="http://www.w3.org/2000/svg" viewBox="0 0 216 216"><defs><style>.cls-1{fill:none;stroke:#00b0e9;stroke-linecap:round;stroke-linejoin:round;stroke-width:4.5px;}</style></defs><path class="cls-1" d="M106.52,127.15q-.69-6.69-1.29-11.5t-1.2-8.28c-.4-2.32-.77-4.23-1.11-5.75s-.63-2.82-.86-3.9-.42-2-.56-2.79a13.71,13.71,0,0,1-.21-2.45,5.68,5.68,0,0,1,2.19-4.93,8.78,8.78,0,0,1,10.08,0,5.66,5.66,0,0,1,2.23,4.93,14.09,14.09,0,0,1-.22,2.53c-.14.83-.34,1.81-.6,2.92l-.9,4q-.51,2.37-1.16,5.8T111.5,116q-.78,4.77-1.55,11.2Zm1.72,17.42q-6.27,0-6.27-5.92t6.27-5.92c3.94,0,5.92,2,5.92,5.92S112.18,144.57,108.24,144.57Z"/><path class="cls-1" d="M98.22,38.45,30.58,155.6A11.92,11.92,0,0,0,40.9,173.47H176.18a11.91,11.91,0,0,0,10.31-17.87L118.85,38.45A11.9,11.9,0,0,0,98.22,38.45Z"/><path class="cls-1" d="M106.92,45.41,41,159.65a1.87,1.87,0,0,0,1.62,2.8H174.5a1.86,1.86,0,0,0,1.61-2.8l-66-114.24A1.87,1.87,0,0,0,106.92,45.41Z"/></svg>