<svg id="Layer_1" data-name="Layer 1" xmlns="http://www.w3.org/2000/svg" viewBox="0 0 216 216"><defs><style>.cls-1{fill:none;stroke:#00b0e9;stroke-linecap:round;stroke-linejoin:round;stroke-width:4.5px;}</style></defs><circle class="cls-1" cx="108" cy="30.55" r="11.29"/><circle class="cls-1" cx="52.96" cy="59.88" r="11.29"/><path class="cls-1" d="M51.25,71.05l-27.54,47.7v1.76A15.5,15.5,0,0,0,39.22,136H66.7a15.5,15.5,0,0,0,15.5-15.5v-1.76L54.66,71.05"/><line class="cls-1" x1="23.71" y1="118.75" x2="82.2" y2="118.75"/><circle class="cls-1" cx="163.04" cy="59.88" r="11.29"/><path class="cls-1" d="M161.34,71.05l-27.54,47.7v1.76A15.5,15.5,0,0,0,149.3,136h27.48a15.5,15.5,0,0,0,15.51-15.5v-1.76l-27.54-47.7"/><line class="cls-1" x1="133.8" y1="118.75" x2="192.29" y2="118.75"/><path class="cls-1" d="M76.37,180.94h63.27a12.18,12.18,0,0,1,12.18,12.18v1.44a0,0,0,0,1,0,0H64.19a0,0,0,0,1,0,0v-1.44A12.18,12.18,0,0,1,76.37,180.94Z"/><path class="cls-1" d="M90.1,170h35.8a8.45,8.45,0,0,1,8.45,8.45v2.46a0,0,0,0,1,0,0H81.65a0,0,0,0,1,0,0v-2.46A8.45,8.45,0,0,1,90.1,170Z"/><polyline class="cls-1" points="102.39 40.34 102.39 54.26 62.75 54.26"/><polyline class="cls-1" points="102.39 170.03 102.39 65.48 62.77 65.48"/><polyline class="cls-1" points="113.61 40.34 113.61 54.26 153.25 54.26"/><polyline class="cls-1" points="113.61 170.03 113.61 65.48 153.24 65.48"/></svg>